<svg xmlns="http://www.w3.org/2000/svg" viewBox="0 0 1600 900" role="img" aria-labelledby="title description">
  <title id="title">ARC-AGI task 007bbfb7 animated solution</title>
  <desc id="description">A three by three orange pattern expands into a nine by nine output by copying the pattern into each active input cell.</desc>
  <defs>
    <linearGradient id="background" x1="0" y1="0" x2="1" y2="1">
      <stop offset="0" stop-color="#07111f"/>
      <stop offset="1" stop-color="#111b2e"/>
    </linearGradient>
    <linearGradient id="arrowGradient" x1="0" y1="0" x2="1" y2="0">
      <stop offset="0" stop-color="#62a9ff"/>
      <stop offset="1" stop-color="#8c6bff"/>
    </linearGradient>
    <filter id="glow" x="-80%" y="-80%" width="260%" height="260%">
      <feGaussianBlur stdDeviation="10" result="blur"/>
      <feMerge><feMergeNode in="blur"/><feMergeNode in="SourceGraphic"/></feMerge>
    </filter>
    <pattern id="inputGrid" width="74" height="74" patternUnits="userSpaceOnUse">
      <rect width="68" height="68" rx="7" fill="#101a28" stroke="#344459" stroke-width="2"/>
    </pattern>
    <pattern id="outputGrid" width="42" height="42" patternUnits="userSpaceOnUse">
      <rect width="38" height="38" rx="4" fill="#101a28" stroke="#2c3b50" stroke-width="1.5"/>
    </pattern>
    <style>
      text { font-family: Inter, -apple-system, BlinkMacSystemFont, "Segoe UI", sans-serif; }
      .eyebrow { fill: #79b7ff; font-size: 24px; font-weight: 700; letter-spacing: 5px; }
      .label { fill: #f7f9fc; font-size: 34px; font-weight: 750; letter-spacing: 2px; }
      .hint { fill: #9aacc3; font-size: 22px; font-weight: 500; }
      .orange { fill: #f49b32; stroke: #ffc36d; stroke-width: 2; }
      .input-cell { animation: breathe 6.4s ease-in-out infinite; transform-box: fill-box; transform-origin: center; }
      .arrow { animation: pulse 1.35s ease-in-out infinite; }
      .block { opacity: 0; animation-duration: 6.4s; animation-iteration-count: infinite; }
      .block-1 { animation-name: reveal1; }
      .block-2 { animation-name: reveal2; }
      .block-3 { animation-name: reveal3; }
      .block-4 { animation-name: reveal4; }
      .block-5 { animation-name: reveal5; }
      .block-6 { animation-name: reveal6; }
      .thinking { animation: thinking 6.4s infinite; }
      .solved { opacity: 0; animation: solved 6.4s infinite; }
      @keyframes breathe { 0%, 100% { opacity: .82; } 12%, 86% { opacity: 1; } }
      @keyframes pulse { 0%, 100% { opacity: .55; transform: translateX(-7px); } 50% { opacity: 1; transform: translateX(7px); } }
      @keyframes reveal1 { 0%, 14% { opacity: 0; } 20%, 94% { opacity: 1; } 100% { opacity: 0; } }
      @keyframes reveal2 { 0%, 24% { opacity: 0; } 30%, 94% { opacity: 1; } 100% { opacity: 0; } }
      @keyframes reveal3 { 0%, 34% { opacity: 0; } 40%, 94% { opacity: 1; } 100% { opacity: 0; } }
      @keyframes reveal4 { 0%, 44% { opacity: 0; } 50%, 94% { opacity: 1; } 100% { opacity: 0; } }
      @keyframes reveal5 { 0%, 54% { opacity: 0; } 60%, 94% { opacity: 1; } 100% { opacity: 0; } }
      @keyframes reveal6 { 0%, 64% { opacity: 0; } 70%, 94% { opacity: 1; } 100% { opacity: 0; } }
      @keyframes thinking { 0%, 66% { opacity: 1; } 72%, 100% { opacity: 0; } }
      @keyframes solved { 0%, 68% { opacity: 0; transform: translateY(8px); } 75%, 94% { opacity: 1; transform: translateY(0); } 100% { opacity: 0; } }
      @media (prefers-reduced-motion: reduce) {
        .input-cell, .arrow, .block, .thinking, .solved { animation: none !important; }
        .block, .solved { opacity: 1; }
        .thinking { opacity: 0; }
      }
    </style>
  </defs>

  <rect width="1600" height="900" fill="url(#background)"/>
  <circle cx="800" cy="450" r="500" fill="#296dff" opacity=".035"/>

  <text x="88" y="92" class="eyebrow">ARC-AGI · TASK 007BBFB7</text>
  <text x="88" y="144" fill="#f7f9fc" font-size="38" font-weight="760">Infer the pattern. Build the answer.</text>

  <rect x="92" y="210" width="480" height="570" rx="32" fill="#0b1423" stroke="#2d4059" stroke-width="3"/>
  <text x="332" y="270" text-anchor="middle" class="label">TEST INPUT</text>
  <rect x="195" y="335" width="222" height="222" fill="url(#inputGrid)"/>
  <g class="orange input-cell">
    <rect x="195" y="335" width="68" height="68" rx="7"/>
    <rect x="343" y="335" width="68" height="68" rx="7"/>
    <rect x="195" y="409" width="68" height="68" rx="7"/>
    <rect x="343" y="409" width="68" height="68" rx="7"/>
    <rect x="195" y="483" width="68" height="68" rx="7"/>
    <rect x="269" y="483" width="68" height="68" rx="7"/>
  </g>
  <text x="332" y="624" text-anchor="middle" class="hint">3 × 3 pattern</text>
  <g class="thinking">
    <rect x="188" y="678" width="288" height="58" rx="29" fill="#15243a" stroke="#355174" stroke-width="2"/>
    <text x="332" y="716" text-anchor="middle" fill="#b9c9dc" font-size="22" font-weight="650">INFERRING RULE…</text>
  </g>
  <g class="solved">
    <rect x="188" y="678" width="288" height="58" rx="29" fill="#173c30" stroke="#48d69b" stroke-width="2"/>
    <text x="332" y="716" text-anchor="middle" fill="#71e6b5" font-size="22" font-weight="750">RULE FOUND ✓</text>
  </g>

  <g class="arrow" filter="url(#glow)">
    <path d="M650 432 H838" fill="none" stroke="url(#arrowGradient)" stroke-width="16" stroke-linecap="round"/>
    <path d="M810 398 L850 432 L810 466" fill="none" stroke="#8c6bff" stroke-width="16" stroke-linecap="round" stroke-linejoin="round"/>
  </g>
  <text x="750" y="380" text-anchor="middle" fill="#aebfd3" font-size="21" font-weight="650">COPY PATTERN INTO</text>
  <text x="750" y="505" text-anchor="middle" fill="#aebfd3" font-size="21" font-weight="650">EACH ACTIVE CELL</text>

  <rect x="930" y="210" width="578" height="570" rx="32" fill="#0b1423" stroke="#2d4059" stroke-width="3"/>
  <text x="1219" y="270" text-anchor="middle" class="label">SOLVER OUTPUT</text>
  <rect x="1030" y="322" width="378" height="378" fill="url(#outputGrid)"/>

  <g class="orange block block-1">
    <rect x="1030" y="322" width="38" height="38" rx="4"/><rect x="1114" y="322" width="38" height="38" rx="4"/>
    <rect x="1030" y="364" width="38" height="38" rx="4"/><rect x="1114" y="364" width="38" height="38" rx="4"/>
    <rect x="1030" y="406" width="38" height="38" rx="4"/><rect x="1072" y="406" width="38" height="38" rx="4"/>
  </g>
  <g class="orange block block-2">
    <rect x="1282" y="322" width="38" height="38" rx="4"/><rect x="1366" y="322" width="38" height="38" rx="4"/>
    <rect x="1282" y="364" width="38" height="38" rx="4"/><rect x="1366" y="364" width="38" height="38" rx="4"/>
    <rect x="1282" y="406" width="38" height="38" rx="4"/><rect x="1324" y="406" width="38" height="38" rx="4"/>
  </g>
  <g class="orange block block-3">
    <rect x="1030" y="448" width="38" height="38" rx="4"/><rect x="1114" y="448" width="38" height="38" rx="4"/>
    <rect x="1030" y="490" width="38" height="38" rx="4"/><rect x="1114" y="490" width="38" height="38" rx="4"/>
    <rect x="1030" y="532" width="38" height="38" rx="4"/><rect x="1072" y="532" width="38" height="38" rx="4"/>
  </g>
  <g class="orange block block-4">
    <rect x="1282" y="448" width="38" height="38" rx="4"/><rect x="1366" y="448" width="38" height="38" rx="4"/>
    <rect x="1282" y="490" width="38" height="38" rx="4"/><rect x="1366" y="490" width="38" height="38" rx="4"/>
    <rect x="1282" y="532" width="38" height="38" rx="4"/><rect x="1324" y="532" width="38" height="38" rx="4"/>
  </g>
  <g class="orange block block-5">
    <rect x="1030" y="574" width="38" height="38" rx="4"/><rect x="1114" y="574" width="38" height="38" rx="4"/>
    <rect x="1030" y="616" width="38" height="38" rx="4"/><rect x="1114" y="616" width="38" height="38" rx="4"/>
    <rect x="1030" y="658" width="38" height="38" rx="4"/><rect x="1072" y="658" width="38" height="38" rx="4"/>
  </g>
  <g class="orange block block-6">
    <rect x="1156" y="574" width="38" height="38" rx="4"/><rect x="1240" y="574" width="38" height="38" rx="4"/>
    <rect x="1156" y="616" width="38" height="38" rx="4"/><rect x="1240" y="616" width="38" height="38" rx="4"/>
    <rect x="1156" y="658" width="38" height="38" rx="4"/><rect x="1198" y="658" width="38" height="38" rx="4"/>
  </g>
  <g class="solved">
    <circle cx="1433" cy="298" r="27" fill="#25c987" filter="url(#glow)"/>
    <path d="M1420 298 L1429 307 L1447 287" fill="none" stroke="white" stroke-width="7" stroke-linecap="round" stroke-linejoin="round"/>
  </g>
</svg>
